<?xml version="1.0" encoding="UTF-8" standalone="no"?>
<!-- Created with Inkscape (http://www.inkscape.org/) -->

<svg
   viewBox="0 0 196 196"
   version="1.1"
   id="svg5"
   xmlns="http://www.w3.org/2000/svg"
   xmlns:svg="http://www.w3.org/2000/svg">
  <defs
     id="defs2" />
  <g
     id="layer1">
    <path
       style="fill:transparent;fill-opacity:0;stroke:#fff;stroke-width:4px;stroke-dasharray:none;stroke-opacity:1"
       d="m 54.253,194.747 c 7.35695,0 16.747,-3.95785 16.747,-10.878 v -44.783 c 0,0 -0.83176,-8.1372 10.416,-8.54422 11.247769,-0.40702 33.168,0 33.168,0 0,0 10.416,-1.1125 10.416,8.54422 v 44.46 c 0,8.40413 9.35218,11.201 16.747,11.201 H 178 c 0,0 16.74701,1.33209 16.747,-11.201 0,0 -5e-5,-76.24649 -5e-5,-95.816 C 194.74695,73.126372 183.2,65.088 183.2,65.088 L 116.78272,8.0140635 c 0,0 -15.55026,-15.2658229 -34.213176,0 L 12.795,65.088 c 0,0 -11.533,7.268738 -11.533,22.642 0,8.58803 0,96.48922 0,96.48922 0,0 -0.058669,10.54188 13.102057,10.52778 h 16.219975 z"
       id="path546" />
  </g>
</svg>
